<svg width="70" height="70" viewBox="0 0 70 70" fill="none" xmlns="http://www.w3.org/2000/svg">
<circle cx="35" cy="35" r="32.9995" fill="#E3EDFA"/>
<path d="M31.1488 25.404L27.2645 21.4785C26.5657 20.7723 25.4562 20.6871 24.684 21.3122C24.0509 21.8246 23.2874 22.4638 22.463 23.1915C20.9424 24.5338 20.282 26.6141 20.8535 28.5602C24.7146 41.709 34.7803 47.4197 41.4615 49.1903C43.263 49.6678 45.1176 48.9647 46.4116 47.6234L48.5354 45.4219C49.301 44.6283 49.2798 43.3648 48.4881 42.5973L44.5492 38.7789C43.8218 38.0738 42.6825 38.0239 41.9142 38.6842C41.3821 39.1414 40.7766 39.6733 40.1803 40.2191C39.6184 40.7333 38.8132 40.9172 38.1256 40.5895C34.1074 38.6744 31.0133 34.7438 29.4641 32.1739C29.0537 31.4932 29.1558 30.6364 29.6628 30.0241L31.2675 28.0864C31.9231 27.2946 31.8718 26.1348 31.1488 25.404Z" fill="#2680EB"/>
</svg>
