<svg width="70" height="70" viewBox="0 0 70 70" fill="none" xmlns="http://www.w3.org/2000/svg">
<path d="M28.1201 25.8034C28.1201 23.5114 26.2619 21.6533 23.9699 21.6533C21.6779 21.6533 19.8198 23.5114 19.8198 25.8034C19.8198 28.0954 21.6779 29.954 23.9699 29.954C26.2619 29.954 28.1201 28.0954 28.1201 25.8034Z" fill="#B9BCC3"/>
<path d="M45.55 21.6533C47.8422 21.6533 49.7001 23.5114 49.7001 25.8034C49.7001 28.0954 47.8422 29.954 45.55 29.954C43.2582 29.954 41.3999 28.0958 41.3999 25.8038C41.3999 23.5117 43.2582 21.6533 45.55 21.6533Z" fill="#B9BCC3"/>
<path fill-rule="evenodd" clip-rule="evenodd" d="M17.5516 38.5146C16.8484 38.5146 16.1779 38.8121 15.7059 39.3334C15.2339 39.8546 15.0042 40.5512 15.0737 41.2511C15.8709 49.2787 23.2366 57.4796 34.7604 57.4796C46.284 57.4796 53.6497 49.2787 54.4471 41.2511C54.5165 40.5512 54.2871 39.8546 53.815 39.3334C53.3429 38.8121 52.6726 38.5146 51.9694 38.5146H17.5516ZM34.7604 52.4995C27.2628 52.4995 22.3917 48.1233 20.6738 43.4948H48.8468C47.129 48.1233 42.2581 52.4995 34.7604 52.4995Z" fill="#B9BCC3"/>
<path fill-rule="evenodd" clip-rule="evenodd" d="M34.7604 1.7915C16.4241 1.7915 1.55957 16.656 1.55957 34.9923C1.55957 53.3285 16.4241 68.1932 34.7604 68.1932C53.0966 68.1932 67.9613 53.3285 67.9613 34.9923C67.9613 16.656 53.0966 1.7915 34.7604 1.7915ZM6.5397 34.9923C6.5397 19.4065 19.1745 6.77163 34.7604 6.77163C50.3462 6.77163 62.9811 19.4065 62.9811 34.9923C62.9811 50.5782 50.3462 63.2131 34.7604 63.2131C19.1745 63.2131 6.5397 50.5782 6.5397 34.9923Z" fill="#B9BCC3"/>
</svg>
