<svg width="71" height="70" viewBox="0 0 71 70" fill="none" xmlns="http://www.w3.org/2000/svg">
<g clip-path="url(#clip0_56_102)">
<path fill-rule="evenodd" clip-rule="evenodd" d="M35.8353 0C37.2851 0 38.4605 1.17531 38.4605 2.62519V5.37999C51.7264 6.69709 62.0871 17.8897 62.0871 31.5023V42.4021L64.51 48.8632C66.4407 54.012 62.6349 59.5043 57.136 59.5043H46.5502C46.4309 65.322 41.6754 69.9998 35.829 69.9998C29.9825 69.9998 25.2271 65.322 25.1078 59.5043H14.5345C9.03578 59.5043 5.22968 54.012 7.16042 48.8632L9.58343 42.4021V31.5023C9.58343 17.8897 19.9442 6.69709 33.2101 5.37999V2.62519C33.2101 1.17531 34.3855 0 35.8353 0ZM30.3605 59.5043C30.4778 62.4196 32.88 64.7494 35.829 64.7494C38.7779 64.7494 41.1802 62.4196 41.2978 59.5043H30.3605ZM14.8338 31.5023C14.8338 19.9034 24.2365 10.5007 35.8353 10.5007C47.4341 10.5007 56.8368 19.9034 56.8368 31.5023V42.4084C56.8368 43.0339 56.9491 43.6541 57.1689 44.2397L59.5939 50.7068C60.2376 52.4229 58.9691 54.2539 57.136 54.2539H14.5345C12.7016 54.2539 11.4329 52.4229 12.0765 50.7068L14.5017 44.2397C14.7213 43.6541 14.8338 43.0339 14.8338 42.4084V31.5023Z" fill="#B9BCC3"/>
</g>
<defs>
<clipPath id="clip0_56_102">
<rect width="70" height="70" fill="white" transform="translate(0.834961)"/>
</clipPath>
</defs>
</svg>
