<svg width="70" height="70" viewBox="0 0 70 70" fill="none" xmlns="http://www.w3.org/2000/svg">
<path fill-rule="evenodd" clip-rule="evenodd" d="M32.268 1.52246C15.1648 1.52246 1.29883 15.3842 1.29883 32.485C1.29883 49.5853 15.1648 63.4471 32.268 63.4471C39.9132 63.4471 46.9116 60.6776 52.3136 56.0868L63.9677 67.742C64.948 68.7226 66.538 68.7229 67.5187 67.7423C68.4993 66.7617 68.4996 65.1717 67.519 64.191L55.8659 52.5369C60.463 47.1346 63.2372 40.1338 63.2372 32.485C63.2372 15.3842 49.3714 1.52246 32.268 1.52246ZM6.32086 32.485C6.32086 18.1589 17.9372 6.54449 32.268 6.54449C46.5989 6.54449 58.2152 18.1589 58.2152 32.485C58.2152 46.8108 46.5989 58.4251 32.268 58.4251C17.9372 58.4251 6.32086 46.8108 6.32086 32.485Z" fill="#B9BCC3"/>
</svg>
